<svg width="246" height="12" viewBox="0 0 246 12" fill="none" xmlns="http://www.w3.org/2000/svg">
<g opacity="0.8">
<path d="M2.60405 9.11364C2.09268 9.11364 1.65234 8.9929 1.28303 8.75142C0.913707 8.50994 0.629617 8.17732 0.430753 7.75355C0.231889 7.32978 0.132457 6.84564 0.132457 6.30114C0.132457 5.74716 0.234257 5.25829 0.437855 4.83452C0.643821 4.40838 0.930279 4.07576 1.29723 3.83665C1.66655 3.59517 2.09742 3.47443 2.58984 3.47443C2.97337 3.47443 3.31901 3.54545 3.62678 3.6875C3.93454 3.82955 4.18667 4.02841 4.38317 4.28409C4.57966 4.53977 4.70159 4.83807 4.74893 5.17898H3.91087C3.84695 4.9304 3.7049 4.71023 3.48473 4.51847C3.26693 4.32434 2.97337 4.22727 2.60405 4.22727C2.27734 4.22727 1.99089 4.3125 1.74467 4.48295C1.50083 4.65104 1.31025 4.88897 1.17294 5.19673C1.038 5.50213 0.970526 5.8608 0.970526 6.27273C0.970526 6.69413 1.03681 7.06108 1.16939 7.37358C1.30433 7.68608 1.49373 7.92874 1.73757 8.10156C1.98378 8.27438 2.27261 8.3608 2.60405 8.3608C2.82185 8.3608 3.01953 8.32292 3.19709 8.24716C3.37464 8.1714 3.52498 8.0625 3.64808 7.92045C3.77119 7.77841 3.85878 7.60795 3.91087 7.40909H4.74893C4.70159 7.73106 4.5844 8.02107 4.39737 8.27912C4.21271 8.5348 3.96768 8.7384 3.66229 8.88991C3.35926 9.03906 3.00651 9.11364 2.60405 9.11364ZM9.18999 9.11364C8.69756 9.11364 8.26551 8.99645 7.89382 8.76207C7.5245 8.5277 7.23568 8.19981 7.02734 7.77841C6.82138 7.35701 6.71839 6.86458 6.71839 6.30114C6.71839 5.73295 6.82138 5.23698 7.02734 4.81321C7.23568 4.38944 7.5245 4.06037 7.89382 3.82599C8.26551 3.59162 8.69756 3.47443 9.18999 3.47443C9.68241 3.47443 10.1133 3.59162 10.4826 3.82599C10.8543 4.06037 11.1431 4.38944 11.3491 4.81321C11.5574 5.23698 11.6616 5.73295 11.6616 6.30114C11.6616 6.86458 11.5574 7.35701 11.3491 7.77841C11.1431 8.19981 10.8543 8.5277 10.4826 8.76207C10.1133 8.99645 9.68241 9.11364 9.18999 9.11364ZM9.18999 8.3608C9.56404 8.3608 9.8718 8.26491 10.1133 8.07315C10.3548 7.88139 10.5335 7.62926 10.6495 7.31676C10.7655 7.00426 10.8235 6.66572 10.8235 6.30114C10.8235 5.93655 10.7655 5.59683 10.6495 5.28196C10.5335 4.96709 10.3548 4.71259 10.1133 4.51847C9.8718 4.32434 9.56404 4.22727 9.18999 4.22727C8.81593 4.22727 8.50817 4.32434 8.26669 4.51847C8.02521 4.71259 7.84647 4.96709 7.73047 5.28196C7.61446 5.59683 7.55646 5.93655 7.55646 6.30114C7.55646 6.66572 7.61446 7.00426 7.73047 7.31676C7.84647 7.62926 8.02521 7.88139 8.26669 8.07315C8.50817 8.26491 8.81593 8.3608 9.18999 8.3608ZM13.9409 11.0455V3.54545H14.7505V4.41193H14.85C14.9115 4.31723 14.9967 4.1965 15.1056 4.04972C15.2169 3.90057 15.3755 3.76799 15.5815 3.65199C15.7898 3.53362 16.0716 3.47443 16.4267 3.47443C16.8859 3.47443 17.2908 3.58925 17.6412 3.81889C17.9915 4.04853 18.265 4.37405 18.4615 4.79545C18.658 5.21686 18.7562 5.71402 18.7562 6.28693C18.7562 6.86458 18.658 7.36529 18.4615 7.78906C18.265 8.21046 17.9927 8.53717 17.6447 8.76918C17.2967 8.99882 16.8954 9.11364 16.4409 9.11364C16.0905 9.11364 15.81 9.05563 15.5993 8.93963C15.3886 8.82126 15.2264 8.6875 15.1127 8.53835C14.9991 8.38684 14.9115 8.26136 14.85 8.16193H14.7789V11.0455H13.9409ZM14.7647 6.27273C14.7647 6.68466 14.8251 7.04806 14.9458 7.36293C15.0666 7.67543 15.243 7.92045 15.475 8.09801C15.707 8.2732 15.9911 8.3608 16.3272 8.3608C16.6776 8.3608 16.97 8.26847 17.2044 8.08381C17.4411 7.89678 17.6187 7.64583 17.737 7.33097C17.8578 7.01373 17.9181 6.66098 17.9181 6.27273C17.9181 5.8892 17.859 5.54356 17.7406 5.2358C17.6246 4.92566 17.4482 4.68063 17.2115 4.50071C16.9771 4.31842 16.6824 4.22727 16.3272 4.22727C15.9863 4.22727 15.6999 4.31368 15.4679 4.48651C15.2359 4.65696 15.0607 4.89607 14.9423 5.20384C14.8239 5.50923 14.7647 5.86553 14.7647 6.27273ZM21.3791 11.0455C21.237 11.0455 21.1104 11.0336 20.9991 11.0099C20.8878 10.9886 20.8109 10.9673 20.7683 10.946L20.9814 10.2074C21.185 10.2595 21.3649 10.2784 21.5211 10.2642C21.6774 10.25 21.8159 10.1802 21.9366 10.0547C22.0597 9.93158 22.1722 9.73153 22.274 9.45455L22.4302 9.02841L20.4132 3.54545H21.3223L22.8279 7.89205H22.8848L24.3904 3.54545H25.2995L22.9842 9.79545C22.88 10.0772 22.751 10.3104 22.5971 10.495C22.4432 10.6821 22.2645 10.8205 22.0609 10.9105C21.8597 11.0005 21.6324 11.0455 21.3791 11.0455ZM27.4057 9V3.54545H28.2154V4.36932H28.2722C28.3716 4.09943 28.5516 3.88045 28.812 3.71236C29.0724 3.54427 29.3659 3.46023 29.6926 3.46023C29.7542 3.46023 29.8311 3.46141 29.9235 3.46378C30.0158 3.46615 30.0856 3.4697 30.133 3.47443V4.3267C30.1046 4.3196 30.0395 4.30895 29.9377 4.29474C29.8382 4.27817 29.7329 4.26989 29.6216 4.26989C29.3565 4.26989 29.1197 4.32552 28.9114 4.43679C28.7054 4.54569 28.5421 4.69721 28.4213 4.89134C28.303 5.0831 28.2438 5.30208 28.2438 5.5483V9H27.4057ZM32.1264 9V3.54545H32.9645V9H32.1264ZM32.5526 2.63636C32.3892 2.63636 32.2483 2.58073 32.13 2.46946C32.014 2.35819 31.956 2.22443 31.956 2.06818C31.956 1.91193 32.014 1.77817 32.13 1.6669C32.2483 1.55563 32.3892 1.5 32.5526 1.5C32.7159 1.5 32.8556 1.55563 32.9716 1.6669C33.09 1.77817 33.1491 1.91193 33.1491 2.06818C33.1491 2.22443 33.09 2.35819 32.9716 2.46946C32.8556 2.58073 32.7159 2.63636 32.5526 2.63636ZM37.7012 11.1591C37.2963 11.1591 36.9483 11.107 36.6571 11.0028C36.3659 10.901 36.1233 10.7661 35.9292 10.598C35.7374 10.4323 35.5847 10.2547 35.4711 10.0653L36.1387 9.59659C36.2144 9.69602 36.3103 9.80966 36.4263 9.9375C36.5423 10.0677 36.7009 10.1802 36.9022 10.2749C37.1058 10.3719 37.3721 10.4205 37.7012 10.4205C38.1415 10.4205 38.5049 10.3139 38.7914 10.1009C39.0778 9.88778 39.2211 9.55398 39.2211 9.09943V7.99148H39.15C39.0885 8.09091 39.0009 8.21402 38.8873 8.3608C38.776 8.50521 38.615 8.63423 38.4043 8.74787C38.196 8.85914 37.9142 8.91477 37.5591 8.91477C37.1188 8.91477 36.7234 8.81061 36.373 8.60227C36.025 8.39394 35.7492 8.09091 35.5456 7.69318C35.3444 7.29545 35.2438 6.8125 35.2438 6.24432C35.2438 5.68561 35.342 5.1991 35.5385 4.7848C35.735 4.36813 36.0085 4.04616 36.3588 3.81889C36.7092 3.58925 37.1141 3.47443 37.5733 3.47443C37.9284 3.47443 38.2102 3.53362 38.4185 3.65199C38.6292 3.76799 38.7902 3.90057 38.9015 4.04972C39.0151 4.1965 39.1027 4.31723 39.1642 4.41193H39.2495V3.54545H40.0591V9.15625C40.0591 9.625 39.9526 10.0062 39.7395 10.2997C39.5288 10.5956 39.2447 10.8123 38.8873 10.9496C38.5321 11.0893 38.1368 11.1591 37.7012 11.1591ZM37.6728 8.16193C38.0089 8.16193 38.293 8.08499 38.525 7.93111C38.757 7.77723 38.9334 7.55587 39.0542 7.26705C39.1749 6.97822 39.2353 6.63258 39.2353 6.23011C39.2353 5.83712 39.1761 5.49029 39.0577 5.18963C38.9393 4.88897 38.7641 4.65341 38.5321 4.48295C38.3001 4.3125 38.0137 4.22727 37.6728 4.22727C37.3176 4.22727 37.0217 4.31723 36.785 4.49716C36.5506 4.67708 36.3742 4.91856 36.2559 5.22159C36.1399 5.52462 36.0819 5.8608 36.0819 6.23011C36.0819 6.6089 36.141 6.94389 36.2594 7.23509C36.3801 7.52391 36.5577 7.75118 36.7921 7.9169C37.0288 8.08026 37.3224 8.16193 37.6728 8.16193ZM43.4313 5.71875V9H42.5932V1.72727H43.4313V4.39773H43.5023C43.6301 4.116 43.8219 3.89228 44.0776 3.72656C44.3356 3.55848 44.6789 3.47443 45.1074 3.47443C45.4791 3.47443 45.8046 3.54901 46.084 3.69815C46.3633 3.84493 46.58 4.07102 46.7338 4.37642C46.8901 4.67945 46.9682 5.06534 46.9682 5.53409V9H46.1301V5.59091C46.1301 5.15767 46.0177 4.82268 45.7928 4.58594C45.5703 4.34683 45.2613 4.22727 44.8659 4.22727C44.5913 4.22727 44.3451 4.28527 44.1273 4.40128C43.9119 4.51728 43.7414 4.68655 43.6159 4.90909C43.4928 5.13163 43.4313 5.40152 43.4313 5.71875ZM51.8736 3.54545V4.25568H49.0469V3.54545H51.8736ZM49.8707 2.23864H50.7088V7.4375C50.7088 7.67424 50.7431 7.8518 50.8118 7.97017C50.8828 8.08617 50.9728 8.1643 51.0817 8.20455C51.1929 8.24242 51.3101 8.26136 51.4332 8.26136C51.5256 8.26136 51.6013 8.25663 51.6605 8.24716C51.7197 8.23532 51.767 8.22585 51.8026 8.21875L51.973 8.97159C51.9162 8.9929 51.8369 9.0142 51.7351 9.03551C51.6333 9.05919 51.5043 9.07102 51.348 9.07102C51.1113 9.07102 50.8793 9.02012 50.652 8.91832C50.4271 8.81652 50.2401 8.66146 50.0909 8.45312C49.9441 8.24479 49.8707 7.98201 49.8707 7.66477V2.23864ZM59.6797 5.36364C59.6797 4.97538 59.7744 4.62145 59.9638 4.30185C60.1532 3.98224 60.4077 3.72775 60.7273 3.53835C61.0469 3.34896 61.4008 3.25426 61.7891 3.25426C62.1252 3.25426 62.4354 3.32647 62.7195 3.47088C63.0059 3.61529 63.2427 3.81297 63.4297 4.06392C63.6167 4.3125 63.7327 4.59422 63.7777 4.90909H62.9183C62.871 4.66525 62.7396 4.46638 62.5241 4.3125C62.3087 4.15625 62.0637 4.07812 61.7891 4.07812C61.5523 4.07812 61.3369 4.13613 61.1428 4.25213C60.9486 4.36813 60.7936 4.5232 60.6776 4.71733C60.5616 4.91146 60.5036 5.12689 60.5036 5.36364C60.5036 5.60038 60.5616 5.81581 60.6776 6.00994C60.7936 6.20407 60.9486 6.35914 61.1428 6.47514C61.3369 6.59115 61.5523 6.64915 61.7891 6.64915C62.0637 6.64915 62.2957 6.57221 62.4851 6.41832C62.6768 6.26207 62.7976 6.06203 62.8473 5.81818H63.7067C63.6617 6.13305 63.5516 6.41596 63.3764 6.6669C63.2012 6.91548 62.9763 7.11198 62.7017 7.25639C62.4295 7.4008 62.1252 7.47301 61.7891 7.47301C61.4008 7.47301 61.0469 7.37831 60.7273 7.18892C60.4077 6.99953 60.1532 6.74503 59.9638 6.42543C59.7744 6.10582 59.6797 5.75189 59.6797 5.36364ZM61.7536 9.11364C61.2375 9.11364 60.7521 9.01657 60.2976 8.82244C59.8454 8.62831 59.4465 8.35961 59.1009 8.01634C58.7576 7.67069 58.4877 7.27178 58.2912 6.8196C58.0971 6.36742 58.0012 5.8821 58.0036 5.36364C58.0059 4.84517 58.1042 4.35985 58.2983 3.90767C58.4948 3.45549 58.7647 3.05777 59.108 2.71449C59.4512 2.36884 59.849 2.09896 60.3011 1.90483C60.7533 1.7107 61.2375 1.61364 61.7536 1.61364C62.272 1.61364 62.7573 1.7107 63.2095 1.90483C63.6641 2.09896 64.0618 2.36884 64.4027 2.71449C64.746 3.05777 65.0147 3.45549 65.2088 3.90767C65.4029 4.35985 65.5012 4.84517 65.5036 5.36364C65.5059 5.8821 65.41 6.36742 65.2159 6.8196C65.0218 7.27178 64.7531 7.67069 64.4098 8.01634C64.0665 8.35961 63.6676 8.62831 63.2131 8.82244C62.7585 9.01657 62.272 9.11364 61.7536 9.11364ZM61.7536 8.28977C62.1584 8.28977 62.5384 8.21402 62.8935 8.0625C63.2486 7.91098 63.5599 7.70147 63.8274 7.43395C64.0949 7.16643 64.3045 6.8563 64.456 6.50355C64.6075 6.14844 64.6821 5.76965 64.6797 5.36719C64.6773 4.96236 64.6004 4.58239 64.4489 4.22727C64.2973 3.87216 64.0878 3.56084 63.8203 3.29332C63.5528 3.0258 63.2427 2.81629 62.8899 2.66477C62.5372 2.51326 62.1584 2.4375 61.7536 2.4375C61.3511 2.4375 60.9735 2.51326 60.6207 2.66477C60.268 2.81629 59.9579 3.02699 59.6903 3.29688C59.4228 3.56439 59.2121 3.87571 59.0582 4.23082C58.9067 4.58357 58.8298 4.96236 58.8274 5.36719C58.825 5.76728 58.8996 6.14489 59.0511 6.5C59.2027 6.85275 59.4122 7.16288 59.6797 7.4304C59.9496 7.69792 60.2609 7.90862 60.6136 8.0625C60.9688 8.21402 61.3487 8.28977 61.7536 8.28977ZM71.3485 1.72727H73.0708L74.7292 4.85938H74.8002L76.4586 1.72727H78.1809L75.5282 6.42898V9H74.0012V6.42898L71.3485 1.72727ZM84.513 1.72727H86.0506V6.45028C86.0506 6.98059 85.9239 7.4446 85.6706 7.84233C85.4197 8.24006 85.0681 8.55019 84.6159 8.77273C84.1638 8.9929 83.637 9.10298 83.0357 9.10298C82.432 9.10298 81.9041 8.9929 81.4519 8.77273C80.9997 8.55019 80.6481 8.24006 80.3972 7.84233C80.1462 7.4446 80.0208 6.98059 80.0208 6.45028V1.72727H81.5584V6.31889C81.5584 6.59588 81.6188 6.84209 81.7395 7.05753C81.8626 7.27296 82.0355 7.44223 82.258 7.56534C82.4805 7.68845 82.7398 7.75 83.0357 7.75C83.334 7.75 83.5932 7.68845 83.8134 7.56534C84.0359 7.44223 84.2076 7.27296 84.3283 7.05753C84.4514 6.84209 84.513 6.59588 84.513 6.31889V1.72727ZM94.3988 1.72727V9H93.0707L89.9066 4.42259H89.8533V9H88.3157V1.72727H89.6651L92.8043 6.30114H92.8683V1.72727H94.3988ZM98.2069 1.72727V9H96.6692V1.72727H98.2069ZM101.786 1.72727L103.544 7.25284H103.611L105.373 1.72727H107.077L104.57 9H102.588L100.078 1.72727H101.786ZM108.952 9V1.72727H113.853V2.99503H110.49V4.72798H113.601V5.99574H110.49V7.73224H113.867V9H108.952ZM116.075 9V1.72727H118.945C119.494 1.72727 119.963 1.82552 120.351 2.02202C120.742 2.21615 121.039 2.49195 121.242 2.84943C121.448 3.20455 121.551 3.6224 121.551 4.10298C121.551 4.58594 121.447 5.00142 121.239 5.34943C121.03 5.69508 120.729 5.96023 120.333 6.14489C119.94 6.32955 119.464 6.42188 118.906 6.42188H116.985V5.18608H118.657C118.951 5.18608 119.195 5.14583 119.389 5.06534C119.583 4.98485 119.727 4.86411 119.822 4.70312C119.919 4.54214 119.968 4.34209 119.968 4.10298C119.968 3.86151 119.919 3.65791 119.822 3.49219C119.727 3.32647 119.582 3.20099 119.385 3.11577C119.191 3.02817 118.946 2.98438 118.65 2.98438H117.613V9H116.075ZM120.003 5.69034L121.811 9H120.113L118.345 5.69034H120.003ZM128.611 5.74716V3.12642H129.893C130.058 3.12642 130.21 3.16075 130.347 3.2294C130.487 3.29806 130.597 3.39749 130.678 3.5277C130.76 3.65554 130.802 3.81179 130.802 3.99645C130.802 4.18111 130.759 4.33854 130.674 4.46875C130.589 4.59896 130.475 4.69839 130.333 4.76705C130.191 4.83333 130.034 4.86648 129.861 4.86648H128.984V4.37287H129.719C129.818 4.37287 129.903 4.34091 129.974 4.27699C130.048 4.21307 130.085 4.11837 130.085 3.9929C130.085 3.86269 130.048 3.77036 129.974 3.71591C129.903 3.65909 129.819 3.63068 129.722 3.63068H129.293V5.74716H128.611ZM130.283 4.53622L130.88 5.74716H130.134L129.577 4.53622H130.283ZM129.637 7.30966C129.244 7.30966 128.876 7.23627 128.533 7.08949C128.189 6.94271 127.888 6.73911 127.627 6.47869C127.367 6.21828 127.163 5.91643 127.016 5.57315C126.87 5.22988 126.796 4.86174 126.796 4.46875C126.796 4.07576 126.87 3.70762 127.016 3.36435C127.163 3.02107 127.367 2.71922 127.627 2.45881C127.888 2.19839 128.189 1.99479 128.533 1.84801C128.876 1.70123 129.244 1.62784 129.637 1.62784C130.03 1.62784 130.398 1.70123 130.741 1.84801C131.085 1.99479 131.387 2.19839 131.647 2.45881C131.907 2.71922 132.111 3.02107 132.258 3.36435C132.405 3.70762 132.478 4.07576 132.478 4.46875C132.478 4.86174 132.405 5.22988 132.258 5.57315C132.111 5.91643 131.907 6.21828 131.647 6.47869C131.387 6.73911 131.085 6.94271 130.741 7.08949C130.398 7.23627 130.03 7.30966 129.637 7.30966ZM129.637 6.56037C130.025 6.56037 130.377 6.46686 130.692 6.27983C131.009 6.09044 131.261 5.8383 131.448 5.52344C131.635 5.2062 131.729 4.85464 131.729 4.46875C131.729 4.08286 131.634 3.73248 131.445 3.41761C131.258 3.10038 131.005 2.84825 130.688 2.66122C130.373 2.47183 130.023 2.37713 129.637 2.37713C129.254 2.37713 128.903 2.47183 128.586 2.66122C128.269 2.84825 128.017 3.10038 127.83 3.41761C127.643 3.73248 127.549 4.08286 127.549 4.46875C127.549 4.85464 127.643 5.2062 127.83 5.52344C128.017 5.8383 128.269 6.09044 128.586 6.27983C128.903 6.46686 129.254 6.56037 129.637 6.56037ZM138.526 9V8.3608L140.927 5.73295C141.209 5.42519 141.441 5.15767 141.623 4.9304C141.805 4.70076 141.94 4.48532 142.028 4.28409C142.118 4.08049 142.163 3.86742 142.163 3.64489C142.163 3.3892 142.101 3.16785 141.978 2.98082C141.857 2.7938 141.692 2.64938 141.481 2.54759C141.27 2.44579 141.033 2.39489 140.771 2.39489C140.491 2.39489 140.247 2.45289 140.039 2.56889C139.833 2.68253 139.673 2.84233 139.56 3.0483C139.448 3.25426 139.393 3.49574 139.393 3.77273H138.555C138.555 3.34659 138.653 2.97254 138.849 2.65057C139.046 2.3286 139.313 2.07765 139.652 1.89773C139.993 1.7178 140.375 1.62784 140.799 1.62784C141.225 1.62784 141.603 1.7178 141.932 1.89773C142.261 2.07765 142.519 2.32031 142.706 2.62571C142.893 2.93111 142.987 3.27083 142.987 3.64489C142.987 3.91241 142.938 4.17401 142.841 4.42969C142.746 4.683 142.58 4.96591 142.344 5.27841C142.109 5.58854 141.784 5.96733 141.367 6.41477L139.734 8.16193V8.21875H143.114V9H138.526ZM147.953 9.09943C147.418 9.09943 146.962 8.95384 146.586 8.66264C146.21 8.36908 145.922 7.94413 145.723 7.38778C145.524 6.82907 145.425 6.15436 145.425 5.36364C145.425 4.57765 145.524 3.90649 145.723 3.35014C145.924 2.79143 146.213 2.36529 146.589 2.07173C146.968 1.7758 147.423 1.62784 147.953 1.62784C148.483 1.62784 148.937 1.7758 149.313 2.07173C149.692 2.36529 149.981 2.79143 150.18 3.35014C150.381 3.90649 150.482 4.57765 150.482 5.36364C150.482 6.15436 150.382 6.82907 150.183 7.38778C149.984 7.94413 149.697 8.36908 149.32 8.66264C148.944 8.95384 148.488 9.09943 147.953 9.09943ZM147.953 8.31818C148.483 8.31818 148.895 8.0625 149.189 7.55114C149.482 7.03977 149.629 6.31061 149.629 5.36364C149.629 4.7339 149.562 4.19768 149.427 3.75497C149.294 3.31226 149.103 2.97491 148.852 2.7429C148.603 2.51089 148.304 2.39489 147.953 2.39489C147.428 2.39489 147.017 2.65412 146.721 3.17259C146.425 3.68868 146.277 4.41903 146.277 5.36364C146.277 5.99337 146.343 6.52841 146.476 6.96875C146.608 7.40909 146.799 7.74408 147.048 7.97372C147.299 8.20336 147.6 8.31818 147.953 8.31818ZM152.831 9V8.3608L155.232 5.73295C155.513 5.42519 155.745 5.15767 155.928 4.9304C156.11 4.70076 156.245 4.48532 156.332 4.28409C156.422 4.08049 156.467 3.86742 156.467 3.64489C156.467 3.3892 156.406 3.16785 156.283 2.98082C156.162 2.7938 155.996 2.64938 155.786 2.54759C155.575 2.44579 155.338 2.39489 155.075 2.39489C154.796 2.39489 154.552 2.45289 154.344 2.56889C154.138 2.68253 153.978 2.84233 153.864 3.0483C153.753 3.25426 153.697 3.49574 153.697 3.77273H152.859C152.859 3.34659 152.958 2.97254 153.154 2.65057C153.351 2.3286 153.618 2.07765 153.957 1.89773C154.298 1.7178 154.68 1.62784 155.104 1.62784C155.53 1.62784 155.907 1.7178 156.237 1.89773C156.566 2.07765 156.824 2.32031 157.011 2.62571C157.198 2.93111 157.291 3.27083 157.291 3.64489C157.291 3.91241 157.243 4.17401 157.146 4.42969C157.051 4.683 156.885 4.96591 156.648 5.27841C156.414 5.58854 156.089 5.96733 155.672 6.41477L154.038 8.16193V8.21875H157.419V9H152.831ZM159.559 7.50852V6.78409L162.755 1.72727H163.281V2.84943H162.925L160.511 6.67045V6.72727H164.815V7.50852H159.559ZM162.982 9V7.28835V6.95099V1.72727H163.82V9H162.982ZM171.27 5.36364C171.27 4.46875 171.386 3.64607 171.618 2.8956C171.853 2.14276 172.187 1.45028 172.62 0.818181H173.358C173.188 1.05256 173.028 1.34138 172.879 1.68466C172.732 2.02557 172.603 2.4008 172.492 2.81037C172.381 3.21757 172.293 3.63897 172.229 4.07457C172.168 4.51018 172.137 4.93987 172.137 5.36364C172.137 5.92708 172.191 6.49882 172.3 7.07884C172.409 7.65885 172.556 8.19744 172.741 8.6946C172.925 9.19176 173.131 9.59659 173.358 9.90909H172.62C172.187 9.27699 171.853 8.5857 171.618 7.83523C171.386 7.08239 171.27 6.25852 171.27 5.36364ZM178.138 1.72727V9H177.257V2.65057H177.214L175.439 3.82955V2.93466L177.257 1.72727H178.138ZM183.786 1.72727V9H182.906V2.65057H182.863L181.087 3.82955V2.93466L182.906 1.72727H183.786ZM186.878 9V8.3608L189.278 5.73295C189.56 5.42519 189.792 5.15767 189.974 4.9304C190.157 4.70076 190.292 4.48532 190.379 4.28409C190.469 4.08049 190.514 3.86742 190.514 3.64489C190.514 3.3892 190.453 3.16785 190.33 2.98082C190.209 2.7938 190.043 2.64938 189.832 2.54759C189.622 2.44579 189.385 2.39489 189.122 2.39489C188.843 2.39489 188.599 2.45289 188.391 2.56889C188.185 2.68253 188.025 2.84233 187.911 3.0483C187.8 3.25426 187.744 3.49574 187.744 3.77273H186.906C186.906 3.34659 187.004 2.97254 187.201 2.65057C187.397 2.3286 187.665 2.07765 188.004 1.89773C188.344 1.7178 188.727 1.62784 189.151 1.62784C189.577 1.62784 189.954 1.7178 190.283 1.89773C190.612 2.07765 190.871 2.32031 191.058 2.62571C191.245 2.93111 191.338 3.27083 191.338 3.64489C191.338 3.91241 191.29 4.17401 191.192 4.42969C191.098 4.683 190.932 4.96591 190.695 5.27841C190.461 5.58854 190.135 5.96733 189.719 6.41477L188.085 8.16193V8.21875H191.466V9H186.878ZM196.347 9.09943C196.049 9.0947 195.751 9.03788 195.452 8.92898C195.154 8.82008 194.882 8.6366 194.636 8.37855C194.389 8.11813 194.192 7.76657 194.043 7.32386C193.893 6.87879 193.819 6.32008 193.819 5.64773C193.819 5.00379 193.879 4.43324 194 3.93608C194.121 3.43655 194.296 3.01634 194.526 2.67543C194.755 2.33215 195.032 2.07173 195.357 1.89418C195.683 1.71662 196.051 1.62784 196.461 1.62784C196.868 1.62784 197.23 1.70952 197.548 1.87287C197.867 2.03385 198.128 2.25876 198.329 2.54759C198.53 2.83641 198.66 3.16903 198.719 3.54545H197.853C197.772 3.21875 197.616 2.94768 197.384 2.73224C197.152 2.51681 196.844 2.40909 196.461 2.40909C195.897 2.40909 195.454 2.65412 195.129 3.14418C194.807 3.63423 194.645 4.32197 194.643 5.20739H194.7C194.832 5.00616 194.99 4.83452 195.172 4.69247C195.357 4.54806 195.56 4.43679 195.783 4.35866C196.005 4.28054 196.241 4.24148 196.489 4.24148C196.906 4.24148 197.287 4.34564 197.633 4.55398C197.978 4.75994 198.255 5.04522 198.464 5.4098C198.672 5.77202 198.776 6.1875 198.776 6.65625C198.776 7.10606 198.676 7.51799 198.474 7.89205C198.273 8.26373 197.99 8.55966 197.626 8.77983C197.263 8.99763 196.837 9.10417 196.347 9.09943ZM196.347 8.31818C196.646 8.31818 196.913 8.24361 197.15 8.09446C197.389 7.94531 197.577 7.74527 197.714 7.49432C197.854 7.24337 197.924 6.96402 197.924 6.65625C197.924 6.35559 197.857 6.08215 197.722 5.83594C197.589 5.58736 197.406 5.38968 197.171 5.2429C196.939 5.09612 196.674 5.02273 196.376 5.02273C196.151 5.02273 195.941 5.06771 195.747 5.15767C195.553 5.24527 195.383 5.366 195.236 5.51989C195.091 5.67377 194.978 5.85014 194.895 6.04901C194.812 6.2455 194.771 6.45265 194.771 6.67045C194.771 6.95928 194.838 7.22917 194.973 7.48011C195.11 7.73106 195.297 7.93348 195.534 8.08736C195.773 8.24124 196.044 8.31818 196.347 8.31818ZM208.437 6.76989V3.54545H209.275V9H208.437V8.0767H208.38C208.252 8.35369 208.053 8.58925 207.784 8.78338C207.514 8.97514 207.173 9.07102 206.761 9.07102C206.42 9.07102 206.117 8.99645 205.852 8.8473C205.587 8.69579 205.378 8.46851 205.227 8.16548C205.075 7.86009 204.999 7.47538 204.999 7.01136V3.54545H205.838V6.95455C205.838 7.35227 205.949 7.66951 206.171 7.90625C206.396 8.14299 206.683 8.26136 207.031 8.26136C207.239 8.26136 207.451 8.2081 207.666 8.10156C207.884 7.99503 208.066 7.83168 208.213 7.61151C208.362 7.39134 208.437 7.1108 208.437 6.76989ZM211.81 11.0455V3.54545H212.62V4.41193H212.719C212.781 4.31723 212.866 4.1965 212.975 4.04972C213.086 3.90057 213.245 3.76799 213.451 3.65199C213.659 3.53362 213.941 3.47443 214.296 3.47443C214.755 3.47443 215.16 3.58925 215.51 3.81889C215.861 4.04853 216.134 4.37405 216.331 4.79545C216.527 5.21686 216.625 5.71402 216.625 6.28693C216.625 6.86458 216.527 7.36529 216.331 7.78906C216.134 8.21046 215.862 8.53717 215.514 8.76918C215.166 8.99882 214.765 9.11364 214.31 9.11364C213.96 9.11364 213.679 9.05563 213.468 8.93963C213.258 8.82126 213.096 8.6875 212.982 8.53835C212.868 8.38684 212.781 8.26136 212.719 8.16193H212.648V11.0455H211.81ZM212.634 6.27273C212.634 6.68466 212.694 7.04806 212.815 7.36293C212.936 7.67543 213.112 7.92045 213.344 8.09801C213.576 8.2732 213.86 8.3608 214.196 8.3608C214.547 8.3608 214.839 8.26847 215.074 8.08381C215.31 7.89678 215.488 7.64583 215.606 7.33097C215.727 7.01373 215.787 6.66098 215.787 6.27273C215.787 5.8892 215.728 5.54356 215.61 5.2358C215.494 4.92566 215.317 4.68063 215.081 4.50071C214.846 4.31842 214.551 4.22727 214.196 4.22727C213.855 4.22727 213.569 4.31368 213.337 4.48651C213.105 4.65696 212.93 4.89607 212.811 5.20384C212.693 5.50923 212.634 5.86553 212.634 6.27273ZM220.963 9.11364C220.509 9.11364 220.108 8.99882 219.76 8.76918C219.412 8.53717 219.139 8.21046 218.943 7.78906C218.746 7.36529 218.648 6.86458 218.648 6.28693C218.648 5.71402 218.746 5.21686 218.943 4.79545C219.139 4.37405 219.413 4.04853 219.763 3.81889C220.114 3.58925 220.518 3.47443 220.978 3.47443C221.333 3.47443 221.613 3.53362 221.819 3.65199C222.028 3.76799 222.186 3.90057 222.295 4.04972C222.406 4.1965 222.493 4.31723 222.554 4.41193H222.625V1.72727H223.463V9H222.654V8.16193H222.554C222.493 8.26136 222.405 8.38684 222.292 8.53835C222.178 8.6875 222.016 8.82126 221.805 8.93963C221.594 9.05563 221.314 9.11364 220.963 9.11364ZM221.077 8.3608C221.413 8.3608 221.697 8.2732 221.929 8.09801C222.161 7.92045 222.338 7.67543 222.458 7.36293C222.579 7.04806 222.64 6.68466 222.64 6.27273C222.64 5.86553 222.58 5.50923 222.462 5.20384C222.344 4.89607 222.168 4.65696 221.936 4.48651C221.704 4.31368 221.418 4.22727 221.077 4.22727C220.722 4.22727 220.426 4.31842 220.189 4.50071C219.955 4.68063 219.779 4.92566 219.66 5.2358C219.544 5.54356 219.486 5.8892 219.486 6.27273C219.486 6.66098 219.545 7.01373 219.664 7.33097C219.784 7.64583 219.962 7.89678 220.196 8.08381C220.433 8.26847 220.727 8.3608 221.077 8.3608ZM227.72 9.12784C227.374 9.12784 227.06 9.06274 226.779 8.93253C226.497 8.79995 226.273 8.60938 226.108 8.3608C225.942 8.10985 225.859 7.80682 225.859 7.4517C225.859 7.1392 225.921 6.88589 226.044 6.69176C226.167 6.49527 226.331 6.34138 226.537 6.23011C226.743 6.11884 226.971 6.03598 227.219 5.98153C227.47 5.92472 227.722 5.87973 227.975 5.84659C228.307 5.80398 228.576 5.77202 228.782 5.75071C228.99 5.72704 229.141 5.68797 229.236 5.63352C229.333 5.57907 229.382 5.48437 229.382 5.34943V5.32102C229.382 4.97064 229.286 4.69839 229.094 4.50426C228.905 4.31013 228.617 4.21307 228.231 4.21307C227.831 4.21307 227.517 4.30066 227.29 4.47585C227.063 4.65104 226.903 4.83807 226.811 5.03693L226.015 4.75284C226.157 4.4214 226.347 4.16335 226.583 3.97869C226.823 3.79167 227.083 3.66146 227.365 3.58807C227.649 3.51231 227.928 3.47443 228.203 3.47443C228.378 3.47443 228.579 3.49574 228.806 3.53835C229.036 3.5786 229.257 3.66264 229.471 3.79048C229.686 3.91832 229.865 4.11127 230.007 4.36932C230.149 4.62737 230.22 4.97301 230.22 5.40625V9H229.382V8.26136H229.339C229.282 8.37973 229.188 8.50639 229.055 8.64134C228.922 8.77628 228.746 8.8911 228.526 8.9858C228.306 9.08049 228.037 9.12784 227.72 9.12784ZM227.848 8.375C228.179 8.375 228.458 8.3099 228.686 8.17969C228.915 8.04948 229.088 7.88139 229.204 7.67543C229.323 7.46946 229.382 7.25284 229.382 7.02557V6.25852C229.346 6.30114 229.268 6.3402 229.147 6.37571C229.029 6.40885 228.892 6.43845 228.735 6.46449C228.582 6.48816 228.431 6.50947 228.284 6.52841C228.14 6.54498 228.023 6.55919 227.933 6.57102C227.715 6.59943 227.511 6.6456 227.322 6.70952C227.135 6.77107 226.984 6.86458 226.868 6.99006C226.754 7.11316 226.697 7.28125 226.697 7.49432C226.697 7.78551 226.805 8.00568 227.02 8.15483C227.238 8.30161 227.514 8.375 227.848 8.375ZM235.122 3.54545V4.25568H232.295V3.54545H235.122ZM233.119 2.23864H233.957V7.4375C233.957 7.67424 233.991 7.8518 234.06 7.97017C234.131 8.08617 234.221 8.1643 234.33 8.20455C234.441 8.24242 234.558 8.26136 234.681 8.26136C234.774 8.26136 234.849 8.25663 234.909 8.24716C234.968 8.23532 235.015 8.22585 235.051 8.21875L235.221 8.97159C235.164 8.9929 235.085 9.0142 234.983 9.03551C234.881 9.05919 234.752 9.07102 234.596 9.07102C234.359 9.07102 234.127 9.02012 233.9 8.91832C233.675 8.81652 233.488 8.66146 233.339 8.45312C233.192 8.24479 233.119 7.98201 233.119 7.66477V2.23864ZM239.611 9.11364C239.085 9.11364 238.632 8.99763 238.251 8.76562C237.872 8.53125 237.579 8.20455 237.373 7.78551C237.17 7.36411 237.068 6.87405 237.068 6.31534C237.068 5.75663 237.17 5.2642 237.373 4.83807C237.579 4.40956 237.866 4.07576 238.233 3.83665C238.602 3.59517 239.033 3.47443 239.525 3.47443C239.809 3.47443 240.09 3.52178 240.367 3.61648C240.644 3.71117 240.896 3.86506 241.123 4.07812C241.351 4.28883 241.532 4.56818 241.667 4.91619C241.802 5.2642 241.869 5.69271 241.869 6.2017V6.55682H237.665V5.83239H241.017C241.017 5.52462 240.955 5.25 240.832 5.00852C240.711 4.76705 240.539 4.57647 240.314 4.43679C240.091 4.29711 239.828 4.22727 239.525 4.22727C239.192 4.22727 238.903 4.31013 238.659 4.47585C238.417 4.6392 238.232 4.85227 238.101 5.11506C237.971 5.37784 237.906 5.65956 237.906 5.96023V6.44318C237.906 6.85511 237.977 7.20431 238.119 7.49077C238.264 7.77486 238.464 7.99148 238.719 8.14062C238.975 8.28741 239.272 8.3608 239.611 8.3608C239.831 8.3608 240.03 8.33002 240.207 8.26847C240.387 8.20455 240.542 8.10985 240.672 7.98438C240.803 7.85653 240.903 7.69792 240.974 7.50852L241.784 7.7358C241.699 8.01042 241.555 8.25189 241.354 8.46023C241.153 8.66619 240.904 8.82718 240.608 8.94318C240.313 9.05682 239.98 9.11364 239.611 9.11364ZM245.934 5.93182C245.934 6.8267 245.817 7.65057 245.582 8.40341C245.35 9.15388 245.018 9.84517 244.584 10.4773H243.846C244.016 10.2429 244.175 9.95407 244.322 9.6108C244.471 9.26989 244.601 8.89583 244.712 8.48864C244.823 8.07907 244.91 7.65649 244.971 7.22088C245.035 6.78291 245.067 6.35322 245.067 5.93182C245.067 5.36837 245.013 4.79664 244.904 4.21662C244.795 3.6366 244.648 3.09801 244.464 2.60085C244.279 2.10369 244.073 1.69886 243.846 1.38636H244.584C245.018 2.01847 245.35 2.71094 245.582 3.46378C245.817 4.21425 245.934 5.03693 245.934 5.93182Z" fill="#232323"/>
</g>
</svg>
